<svg width="242" height="235" viewBox="0 0 242 235" fill="none" xmlns="http://www.w3.org/2000/svg">
<path d="M200.968 174.076C200.988 175.924 200.497 178.339 199.986 180.33C196.417 194.332 180.566 210.044 158.255 208.615C138.034 207.322 121.565 197.896 121.565 184.677C121.565 171.459 137.994 160.74 158.255 160.74C178.515 160.74 200.84 160.858 200.968 174.076Z" fill="#EA596E"/>
<path d="M158.255 162.959C147.371 162.959 122.533 165.884 116.832 165.884C106.762 165.884 98.5948 172.02 98.5948 179.592C98.5948 183.235 100.517 186.525 103.596 188.979C103.596 188.979 110.359 195.566 122.539 192.406C127.87 191.022 136.542 180.748 151.808 179.116C159.411 178.3 173.655 184.012 198.689 184.149C199.764 181.903 199.986 180.343 199.986 180.343C199.986 167.111 178.515 162.959 158.255 162.959Z" fill="#DD2E44"/>
<path d="M199.986 180.33C199.986 180.33 214.667 177.438 223.796 165.779C234.437 152.182 233.039 137.632 233.039 137.632C243.822 118.048 229.678 99.6857 229.678 99.6857C228.273 79.0122 215.111 70.4478 215.111 70.4478C206.567 50.7274 187.664 45.4268 187.664 45.4268C172.822 28.5656 146.491 29.1074 146.491 29.1074C146.491 29.1074 121.82 20.3275 87.9536 30.1975C82.3539 31.8294 63.5855 35.6351 49.8587 43.7949C6.59451 69.5143 3.32078 109.621 3.92578 116.142C7.28017 152.587 33.6111 159.115 50.4167 162.92C54.3357 173.254 68.7616 192.295 94.6691 185.226C126.6 179.788 140.044 170.538 147.889 170.538C155.734 170.538 177.581 178.698 199.986 180.33Z" fill="#F4ABBA"/>
</svg>
