<svg width="422" height="470" viewBox="0 0 422 470" fill="none" xmlns="http://www.w3.org/2000/svg">
<mask id="mask0_4_4" style="mask-type:luminance" maskUnits="userSpaceOnUse" x="0" y="0" width="206" height="470">
<path d="M0 0H205.978V470H0V0Z" fill="white"/>
</mask>
<g mask="url(#mask0_4_4)">
<path d="M183.388 406.73C166.213 406.73 147.947 400.192 132.607 387.809C121.382 399.269 110.747 402.97 101.71 402.97C96.6223 402.97 92.0416 401.802 88.145 400.189C81.3165 397.363 77.8322 388.897 80.3643 381.279C82.8967 373.66 90.4844 369.775 97.3126 372.598C99.5408 373.517 104.949 375.744 113.986 366.924C105.205 352.705 101.566 336.354 103.811 319.674C104.891 311.639 111.608 306.098 118.809 307.31C126.011 308.515 130.974 316.009 129.891 324.044C128.985 330.779 128.877 348.109 147.431 363.471C162.587 376.019 182.932 380.523 197.132 374.807C202.528 365.329 205.381 354.874 205.486 343.937C205.626 329.042 200.758 314.006 191.606 300.633C196.357 290.441 199.135 277.258 199.328 263.109C199.423 256.008 198.857 249.226 197.682 242.855C191.561 247.243 184.229 250.554 175.924 252.573C169.936 254.026 163.716 254.745 157.535 254.745C148.332 254.745 139.212 253.149 131.078 250.013C114.107 243.468 103.241 230.738 100.433 215.095C100.401 215.095 100.368 215.099 100.335 215.099C83.6976 215.099 68.3717 206.436 58.8538 191.48C54.6396 184.854 56.0367 175.669 61.9753 170.964C67.9138 166.262 76.1461 167.817 80.3602 174.446C85.255 182.142 93.1405 186.209 101.987 185.617C111.649 184.967 120.199 178.852 124.855 169.27C128.327 162.125 136.33 159.472 142.733 163.345C149.137 167.218 151.515 176.147 148.044 183.292C142.877 193.93 135.218 202.355 126.086 207.857C126.377 212.026 128.752 217.98 139.693 222.204C158.36 229.407 183.629 223.749 189.764 210.993C189.989 210.526 190.235 210.081 190.497 209.65C198.991 182.099 197.79 154.628 186.937 132.819C195.447 99.2839 196.815 68.7032 191.128 39.5347C191.108 39.4288 191.086 39.3229 191.063 39.2134C184.735 9.9065 172.344 4.57671 168.274 2.82721C157.8 -1.67401 145.727 0.826688 131.47 10.4862C112.401 7.3759 91.3468 13.3776 76.3744 26.527C63.1953 38.1072 55.1065 54.6293 53.0845 73.7298C53.6276 81.0092 57.0827 87.6314 63.4106 93.4724C69.1823 98.7987 76.8812 103.008 85.084 105.323C93.3031 107.641 99.4449 107.29 102.206 106.286C109.132 103.76 116.573 107.988 118.834 115.712C121.092 123.437 117.309 131.742 110.386 134.262C106.211 135.78 101.467 136.503 96.4211 136.503C80.0055 136.503 60.3776 128.859 46.6021 116.147C40.7519 110.748 36.1353 104.637 32.8141 98.015C31.4988 100.654 30.3111 103.422 29.2706 106.335C24.7619 118.944 22.9263 134.211 23.7835 151.818C12.0309 160.897 3.51068 176.653 0.284181 195.954C-4.39793 223.966 2.37495 252.448 18.0643 272.53C18.0545 272.563 18.0479 272.596 18.0414 272.629C23.3746 275.801 31.0278 278.28 41.8381 277.955C58.4631 277.455 75.7222 269.676 81.9851 259.859C86.2092 253.241 94.4446 251.693 100.377 256.41C106.309 261.122 107.693 270.311 103.469 276.93C92.3342 294.376 67.8506 306.609 42.5487 307.372C41.6915 307.398 40.8375 307.412 39.99 307.412C30.5241 307.412 21.7585 305.795 13.936 302.692C13.8051 310.961 14.5969 318.788 16.3376 326.125C20.3326 342.955 29.1439 357.254 42.5818 368.749C40.4191 391.628 45.6607 412.236 57.6983 427.543C67.4063 439.889 85.6831 453.944 118.317 453.13C128.889 463.728 140.566 469.433 151.839 469.43C152.438 469.43 153.036 469.411 153.629 469.382C161.524 468.955 173.028 465.454 183.007 451.216C183.635 450.318 184.172 449.34 184.597 448.303C190.719 433.459 194.093 419.35 194.743 405.733C191.046 406.401 187.244 406.733 183.386 406.733L183.388 406.73Z" fill="#EC5050"/>
</g>
<mask id="mask1_4_4" style="mask-type:luminance" maskUnits="userSpaceOnUse" x="215" y="0" width="207" height="470">
<path d="M215.192 0H422V470H215.192V0Z" fill="white"/>
</mask>
<g mask="url(#mask1_4_4)">
<path d="M237.439 406.73C254.614 406.73 272.881 400.192 288.22 387.809C299.446 399.269 310.08 402.97 319.117 402.97C324.205 402.97 328.786 401.802 332.682 400.189C339.511 397.363 342.995 388.897 340.463 381.279C337.931 373.66 330.343 369.775 323.515 372.598C321.286 373.517 315.878 375.744 306.841 366.924C315.623 352.705 319.261 336.354 317.016 319.674C315.937 311.639 309.219 306.098 302.018 307.31C294.817 308.514 289.853 316.009 290.936 324.044C291.843 330.779 291.951 348.109 273.396 363.471C258.24 376.019 237.895 380.523 223.695 374.807C218.3 365.329 215.446 354.874 215.342 343.937C215.201 329.042 220.07 314.006 229.221 300.633C224.47 290.441 221.692 277.258 221.499 263.109C221.404 256.008 221.97 249.226 223.145 242.855C229.267 247.243 236.599 250.554 244.904 252.573C250.891 254.025 257.111 254.745 263.292 254.745C272.496 254.745 281.615 253.149 289.749 250.013C306.721 243.468 317.586 230.738 320.394 215.095C320.427 215.095 320.459 215.099 320.492 215.099C337.13 215.099 352.456 206.436 361.973 191.48C366.188 184.854 364.791 175.669 358.852 170.963C352.913 166.262 344.681 167.817 340.467 174.446C335.572 182.142 327.687 186.209 318.84 185.617C309.178 184.967 300.628 178.852 295.972 169.27C292.501 162.125 284.498 159.472 278.094 163.345C271.691 167.218 269.312 176.147 272.784 183.292C277.95 193.93 285.609 202.355 294.742 207.857C294.451 212.026 292.075 217.98 281.134 222.204C262.468 229.407 237.198 223.749 231.064 210.993C230.838 210.526 230.592 210.081 230.331 209.65C221.836 182.099 223.038 154.628 233.891 132.819C225.38 99.2839 224.013 68.7032 229.699 39.5346C229.719 39.4287 229.742 39.3229 229.765 39.2134C236.093 9.90272 248.484 4.57666 252.554 2.82343C263.027 -1.67779 275.101 0.822904 289.357 10.4824C308.426 7.37212 329.48 13.3738 344.453 26.5232C357.635 38.1034 365.721 54.6255 367.746 73.726C367.203 81.0054 363.748 87.6276 357.42 93.4686C351.648 98.7949 343.949 103.004 335.747 105.319C327.528 107.637 321.386 107.287 318.625 106.283C311.698 103.756 304.258 107.984 301.997 115.709C299.739 123.433 303.521 131.738 310.445 134.258C314.62 135.776 319.364 136.499 324.41 136.499C340.825 136.499 360.453 128.855 374.229 116.144C380.079 110.744 384.695 104.633 388.017 98.0112C389.332 100.651 390.52 103.418 391.56 106.331C396.069 118.94 397.904 134.207 397.047 151.814C408.8 160.893 417.32 176.649 420.546 195.951C425.229 223.962 418.456 252.444 402.766 272.527C402.776 272.56 402.783 272.592 402.789 272.625C397.456 275.798 389.803 278.276 378.993 277.951C362.368 277.451 345.108 269.672 338.846 259.856C334.621 253.237 326.386 251.689 320.454 256.406C314.522 261.119 313.138 270.307 317.362 276.926C328.497 294.372 352.98 306.606 378.282 307.368C379.139 307.394 379.993 307.408 380.841 307.408C390.307 307.408 399.072 305.791 406.895 302.688C407.026 310.957 406.234 318.784 404.493 326.121C400.498 342.951 391.687 357.251 378.249 368.746C380.412 391.624 375.17 412.232 363.132 427.539C353.424 439.885 335.148 453.94 302.513 453.126C291.942 463.724 280.264 469.43 268.992 469.426C268.393 469.426 267.794 469.408 267.202 469.379C259.307 468.951 247.803 465.45 237.823 451.213C237.195 450.314 236.659 449.336 236.233 448.299C230.111 433.456 226.738 419.347 226.087 405.729C229.785 406.401 233.583 406.733 237.441 406.733L237.439 406.73Z" fill="#EC5050"/>
</g>
</svg>
